<mxfile host="app.diagrams.net" modified="2023-12-30T13:55:36.951Z" agent="Mozilla/5.0 (Macintosh; Intel Mac OS X 10_15_7) AppleWebKit/605.1.15 (KHTML, like Gecko) Version/17.2.1 Safari/605.1.15" etag="q6qxcbL4y8jjJv0VBZ0b" version="22.1.16" type="device">
  <diagram name="Page-1" id="e7e014a7-5840-1c2e-5031-d8a46d1fe8dd">
    <mxGraphModel dx="1363" dy="924" grid="1" gridSize="10" guides="1" tooltips="1" connect="1" arrows="1" fold="1" page="1" pageScale="1" pageWidth="1169" pageHeight="826" background="none" math="0" shadow="0">
      <root>
        <mxCell id="0" />
        <mxCell id="1" parent="0" />
        <mxCell id="2" value="TRAVEL PACKAGE" style="swimlane;whiteSpace=wrap" parent="1" vertex="1">
          <mxGeometry x="164.5" y="128" width="275.5" height="1342" as="geometry" />
        </mxCell>
        <mxCell id="5" value="" style="ellipse;shape=startState;fillColor=#000000;strokeColor=#ff0000;" parent="2" vertex="1">
          <mxGeometry x="100" y="40" width="30" height="30" as="geometry" />
        </mxCell>
        <mxCell id="6" value="" style="edgeStyle=elbowEdgeStyle;elbow=vertical;verticalAlign=bottom;endArrow=open;endSize=8;strokeColor=#000000;endFill=1;rounded=0" parent="2" source="5" target="7" edge="1">
          <mxGeometry x="100" y="40" as="geometry">
            <mxPoint x="115" y="110" as="targetPoint" />
          </mxGeometry>
        </mxCell>
        <mxCell id="7" value="Travel package created" style="" parent="2" vertex="1">
          <mxGeometry x="45" y="152" width="140" height="50" as="geometry" />
        </mxCell>
        <mxCell id="9TQTnlW5bSjwpC1UjvyU-139" value="Passenger added to travel package" style="rounded=0;whiteSpace=wrap;html=1;" vertex="1" parent="2">
          <mxGeometry x="77.75" y="1072" width="120" height="60" as="geometry" />
        </mxCell>
        <mxCell id="9TQTnlW5bSjwpC1UjvyU-141" value="" style="ellipse;html=1;shape=endState;fillColor=#000000;strokeColor=#ff0000;" vertex="1" parent="2">
          <mxGeometry x="122.75" y="1252" width="30" height="30" as="geometry" />
        </mxCell>
        <mxCell id="9TQTnlW5bSjwpC1UjvyU-142" value="" style="endArrow=classic;html=1;rounded=0;entryX=0.5;entryY=0;entryDx=0;entryDy=0;exitX=0.5;exitY=1;exitDx=0;exitDy=0;" edge="1" parent="2" source="9TQTnlW5bSjwpC1UjvyU-139" target="9TQTnlW5bSjwpC1UjvyU-141">
          <mxGeometry width="50" height="50" relative="1" as="geometry">
            <mxPoint x="135.5" y="1162" as="sourcePoint" />
            <mxPoint x="705.5" y="992" as="targetPoint" />
          </mxGeometry>
        </mxCell>
        <mxCell id="9TQTnlW5bSjwpC1UjvyU-143" value="End" style="text;html=1;strokeColor=none;fillColor=none;align=center;verticalAlign=middle;whiteSpace=wrap;rounded=0;" vertex="1" parent="2">
          <mxGeometry x="152.75" y="1252" width="60" height="30" as="geometry" />
        </mxCell>
        <mxCell id="9TQTnlW5bSjwpC1UjvyU-144" value="Start" style="text;html=1;strokeColor=none;fillColor=none;align=center;verticalAlign=middle;whiteSpace=wrap;rounded=0;" vertex="1" parent="2">
          <mxGeometry x="130" y="40" width="60" height="30" as="geometry" />
        </mxCell>
        <mxCell id="3" value="PASSENGER" style="swimlane;whiteSpace=wrap" parent="1" vertex="1">
          <mxGeometry x="440" y="128" width="270" height="1342" as="geometry" />
        </mxCell>
        <mxCell id="15" value="Passenger selects&#xa;travel package" style="" parent="3" vertex="1">
          <mxGeometry x="30.5" y="152" width="110" height="50" as="geometry" />
        </mxCell>
        <mxCell id="9TQTnlW5bSjwpC1UjvyU-95" value="" style="edgeStyle=orthogonalEdgeStyle;rounded=0;orthogonalLoop=1;jettySize=auto;html=1;" edge="1" parent="3" source="9TQTnlW5bSjwpC1UjvyU-91" target="9TQTnlW5bSjwpC1UjvyU-94">
          <mxGeometry relative="1" as="geometry" />
        </mxCell>
        <mxCell id="9TQTnlW5bSjwpC1UjvyU-91" value="If passenger type =&lt;br&gt;Standard" style="rhombus;whiteSpace=wrap;html=1;" vertex="1" parent="3">
          <mxGeometry x="40" y="485" width="140" height="147.5" as="geometry" />
        </mxCell>
        <mxCell id="9TQTnlW5bSjwpC1UjvyU-99" value="" style="edgeStyle=orthogonalEdgeStyle;rounded=0;orthogonalLoop=1;jettySize=auto;html=1;" edge="1" parent="3" source="9TQTnlW5bSjwpC1UjvyU-94" target="9TQTnlW5bSjwpC1UjvyU-98">
          <mxGeometry relative="1" as="geometry" />
        </mxCell>
        <mxCell id="9TQTnlW5bSjwpC1UjvyU-94" value="If passenger type =&lt;br&gt;Gold" style="rhombus;whiteSpace=wrap;html=1;" vertex="1" parent="3">
          <mxGeometry x="40" y="672" width="140" height="147.5" as="geometry" />
        </mxCell>
        <mxCell id="9TQTnlW5bSjwpC1UjvyU-96" value="No" style="text;html=1;strokeColor=none;fillColor=none;align=center;verticalAlign=middle;whiteSpace=wrap;rounded=0;" vertex="1" parent="3">
          <mxGeometry x="105" y="632.5" width="60" height="30" as="geometry" />
        </mxCell>
        <mxCell id="9TQTnlW5bSjwpC1UjvyU-98" value="If passenger type =&lt;br&gt;Premium" style="rhombus;whiteSpace=wrap;html=1;" vertex="1" parent="3">
          <mxGeometry x="40" y="882" width="140" height="147.5" as="geometry" />
        </mxCell>
        <mxCell id="9TQTnlW5bSjwpC1UjvyU-104" value="No" style="text;html=1;strokeColor=none;fillColor=none;align=center;verticalAlign=middle;whiteSpace=wrap;rounded=0;" vertex="1" parent="3">
          <mxGeometry x="120" y="819.5" width="60" height="30" as="geometry" />
        </mxCell>
        <mxCell id="9TQTnlW5bSjwpC1UjvyU-108" value="Yes" style="text;html=1;strokeColor=none;fillColor=none;align=center;verticalAlign=middle;whiteSpace=wrap;rounded=0;" vertex="1" parent="3">
          <mxGeometry x="190" y="922" width="60" height="30" as="geometry" />
        </mxCell>
        <mxCell id="9TQTnlW5bSjwpC1UjvyU-105" value="Yes" style="text;html=1;strokeColor=none;fillColor=none;align=center;verticalAlign=middle;whiteSpace=wrap;rounded=0;" vertex="1" parent="3">
          <mxGeometry x="180" y="522" width="60" height="30" as="geometry" />
        </mxCell>
        <mxCell id="9TQTnlW5bSjwpC1UjvyU-122" value="Yes" style="text;html=1;strokeColor=none;fillColor=none;align=center;verticalAlign=middle;whiteSpace=wrap;rounded=0;" vertex="1" parent="3">
          <mxGeometry x="170" y="722" width="60" height="30" as="geometry" />
        </mxCell>
        <mxCell id="4" value="DESTINATION" style="swimlane;whiteSpace=wrap" parent="1" vertex="1">
          <mxGeometry x="710" y="130" width="290" height="1340" as="geometry" />
        </mxCell>
        <mxCell id="9TQTnlW5bSjwpC1UjvyU-49" value="Destination 1" style="ellipse;whiteSpace=wrap;html=1;" vertex="1" parent="4">
          <mxGeometry x="80" y="40" width="120" height="80" as="geometry" />
        </mxCell>
        <mxCell id="9TQTnlW5bSjwpC1UjvyU-50" value="Destination 2" style="ellipse;whiteSpace=wrap;html=1;" vertex="1" parent="4">
          <mxGeometry x="80" y="182" width="120" height="80" as="geometry" />
        </mxCell>
        <mxCell id="9TQTnlW5bSjwpC1UjvyU-41" value="ACTIVITY" style="swimlane;whiteSpace=wrap" vertex="1" parent="1">
          <mxGeometry x="1000" y="128" width="410" height="1342" as="geometry" />
        </mxCell>
        <mxCell id="9TQTnlW5bSjwpC1UjvyU-55" value="Activity 1" style="rounded=1;whiteSpace=wrap;html=1;" vertex="1" parent="9TQTnlW5bSjwpC1UjvyU-41">
          <mxGeometry x="80" y="40" width="80" height="40" as="geometry" />
        </mxCell>
        <mxCell id="9TQTnlW5bSjwpC1UjvyU-56" value="Activity 2" style="rounded=1;whiteSpace=wrap;html=1;" vertex="1" parent="9TQTnlW5bSjwpC1UjvyU-41">
          <mxGeometry x="84.5" y="102.5" width="80" height="40" as="geometry" />
        </mxCell>
        <mxCell id="9TQTnlW5bSjwpC1UjvyU-57" value="Activity 1" style="rounded=1;whiteSpace=wrap;html=1;" vertex="1" parent="9TQTnlW5bSjwpC1UjvyU-41">
          <mxGeometry x="84.5" y="172" width="80" height="40" as="geometry" />
        </mxCell>
        <mxCell id="9TQTnlW5bSjwpC1UjvyU-58" value="Activity 2" style="rounded=1;whiteSpace=wrap;html=1;" vertex="1" parent="9TQTnlW5bSjwpC1UjvyU-41">
          <mxGeometry x="84.5" y="232" width="80" height="40" as="geometry" />
        </mxCell>
        <mxCell id="9TQTnlW5bSjwpC1UjvyU-72" value="Passenger enrolls for an activity" style="rounded=0;whiteSpace=wrap;html=1;" vertex="1" parent="9TQTnlW5bSjwpC1UjvyU-41">
          <mxGeometry x="75.5" y="292" width="120" height="60" as="geometry" />
        </mxCell>
        <mxCell id="9TQTnlW5bSjwpC1UjvyU-84" value="" style="edgeStyle=orthogonalEdgeStyle;rounded=0;orthogonalLoop=1;jettySize=auto;html=1;" edge="1" parent="9TQTnlW5bSjwpC1UjvyU-41" source="9TQTnlW5bSjwpC1UjvyU-79">
          <mxGeometry relative="1" as="geometry">
            <mxPoint x="280" y="432" as="targetPoint" />
          </mxGeometry>
        </mxCell>
        <mxCell id="9TQTnlW5bSjwpC1UjvyU-79" value="If capacity = full" style="rhombus;whiteSpace=wrap;html=1;" vertex="1" parent="9TQTnlW5bSjwpC1UjvyU-41">
          <mxGeometry x="75.5" y="387.5" width="104.5" height="89" as="geometry" />
        </mxCell>
        <mxCell id="9TQTnlW5bSjwpC1UjvyU-78" value="" style="endArrow=classic;html=1;rounded=0;exitX=0.429;exitY=1.052;exitDx=0;exitDy=0;entryX=0.5;entryY=0;entryDx=0;entryDy=0;exitPerimeter=0;" edge="1" parent="9TQTnlW5bSjwpC1UjvyU-41" source="9TQTnlW5bSjwpC1UjvyU-72" target="9TQTnlW5bSjwpC1UjvyU-79">
          <mxGeometry width="50" height="50" relative="1" as="geometry">
            <mxPoint x="-250" y="482" as="sourcePoint" />
            <mxPoint x="166" y="412" as="targetPoint" />
          </mxGeometry>
        </mxCell>
        <mxCell id="9TQTnlW5bSjwpC1UjvyU-85" value="Yes" style="text;html=1;strokeColor=none;fillColor=none;align=center;verticalAlign=middle;whiteSpace=wrap;rounded=0;" vertex="1" parent="9TQTnlW5bSjwpC1UjvyU-41">
          <mxGeometry x="195.5" y="402" width="60" height="33.5" as="geometry" />
        </mxCell>
        <mxCell id="9TQTnlW5bSjwpC1UjvyU-88" value="" style="ellipse;html=1;shape=endState;fillColor=#000000;strokeColor=#ff0000;" vertex="1" parent="9TQTnlW5bSjwpC1UjvyU-41">
          <mxGeometry x="275" y="417" width="30" height="30" as="geometry" />
        </mxCell>
        <mxCell id="9TQTnlW5bSjwpC1UjvyU-89" value="Cannot sign up for activity" style="text;html=1;strokeColor=none;fillColor=none;align=center;verticalAlign=middle;whiteSpace=wrap;rounded=0;" vertex="1" parent="9TQTnlW5bSjwpC1UjvyU-41">
          <mxGeometry x="260" y="362" width="60" height="30" as="geometry" />
        </mxCell>
        <mxCell id="9TQTnlW5bSjwpC1UjvyU-71" value="" style="endArrow=classic;html=1;rounded=0;" edge="1" parent="9TQTnlW5bSjwpC1UjvyU-41">
          <mxGeometry width="50" height="50" relative="1" as="geometry">
            <mxPoint x="-474.5" y="321.29" as="sourcePoint" />
            <mxPoint x="75.5" y="321.29" as="targetPoint" />
          </mxGeometry>
        </mxCell>
        <mxCell id="9TQTnlW5bSjwpC1UjvyU-107" value="Signed up for Activity" style="rounded=0;whiteSpace=wrap;html=1;" vertex="1" parent="9TQTnlW5bSjwpC1UjvyU-41">
          <mxGeometry x="270" y="932.75" width="120" height="62" as="geometry" />
        </mxCell>
        <mxCell id="9TQTnlW5bSjwpC1UjvyU-86" value="No" style="text;html=1;strokeColor=none;fillColor=none;align=center;verticalAlign=middle;whiteSpace=wrap;rounded=0;" vertex="1" parent="9TQTnlW5bSjwpC1UjvyU-41">
          <mxGeometry x="15.5" y="402" width="60" height="30" as="geometry" />
        </mxCell>
        <mxCell id="9TQTnlW5bSjwpC1UjvyU-109" value="Balance&amp;gt;&lt;br&gt;cost of activity" style="rhombus;whiteSpace=wrap;html=1;" vertex="1" parent="9TQTnlW5bSjwpC1UjvyU-41">
          <mxGeometry x="75" y="492" width="130" height="133.5" as="geometry" />
        </mxCell>
        <mxCell id="9TQTnlW5bSjwpC1UjvyU-113" value="" style="endArrow=classic;html=1;rounded=0;entryX=0.5;entryY=1;entryDx=0;entryDy=0;" edge="1" parent="9TQTnlW5bSjwpC1UjvyU-41" target="9TQTnlW5bSjwpC1UjvyU-88">
          <mxGeometry width="50" height="50" relative="1" as="geometry">
            <mxPoint x="290" y="562" as="sourcePoint" />
            <mxPoint x="250" y="708" as="targetPoint" />
          </mxGeometry>
        </mxCell>
        <mxCell id="9TQTnlW5bSjwpC1UjvyU-114" value="" style="endArrow=none;html=1;rounded=0;exitX=1;exitY=0.5;exitDx=0;exitDy=0;" edge="1" parent="9TQTnlW5bSjwpC1UjvyU-41" source="9TQTnlW5bSjwpC1UjvyU-109">
          <mxGeometry width="50" height="50" relative="1" as="geometry">
            <mxPoint x="230" y="578.75" as="sourcePoint" />
            <mxPoint x="290" y="559" as="targetPoint" />
          </mxGeometry>
        </mxCell>
        <mxCell id="9TQTnlW5bSjwpC1UjvyU-115" value="No" style="text;html=1;strokeColor=none;fillColor=none;align=center;verticalAlign=middle;whiteSpace=wrap;rounded=0;" vertex="1" parent="9TQTnlW5bSjwpC1UjvyU-41">
          <mxGeometry x="195.5" y="532" width="60" height="30" as="geometry" />
        </mxCell>
        <mxCell id="9TQTnlW5bSjwpC1UjvyU-120" value="Yes" style="text;html=1;strokeColor=none;fillColor=none;align=center;verticalAlign=middle;whiteSpace=wrap;rounded=0;" vertex="1" parent="9TQTnlW5bSjwpC1UjvyU-41">
          <mxGeometry x="145" y="622" width="60" height="30" as="geometry" />
        </mxCell>
        <mxCell id="9TQTnlW5bSjwpC1UjvyU-123" value="Balance&amp;gt;90% of cost of activity" style="rhombus;whiteSpace=wrap;html=1;" vertex="1" parent="9TQTnlW5bSjwpC1UjvyU-41">
          <mxGeometry x="40" y="670" width="150" height="160" as="geometry" />
        </mxCell>
        <mxCell id="9TQTnlW5bSjwpC1UjvyU-132" value="Yes" style="text;html=1;strokeColor=none;fillColor=none;align=center;verticalAlign=middle;whiteSpace=wrap;rounded=0;" vertex="1" parent="9TQTnlW5bSjwpC1UjvyU-41">
          <mxGeometry x="104.5" y="830" width="60" height="30" as="geometry" />
        </mxCell>
        <mxCell id="9TQTnlW5bSjwpC1UjvyU-133" value="No" style="text;html=1;strokeColor=none;fillColor=none;align=center;verticalAlign=middle;whiteSpace=wrap;rounded=0;" vertex="1" parent="9TQTnlW5bSjwpC1UjvyU-41">
          <mxGeometry x="175" y="720" width="60" height="30" as="geometry" />
        </mxCell>
        <mxCell id="9TQTnlW5bSjwpC1UjvyU-146" value="End" style="text;html=1;strokeColor=none;fillColor=none;align=center;verticalAlign=middle;whiteSpace=wrap;rounded=0;" vertex="1" parent="9TQTnlW5bSjwpC1UjvyU-41">
          <mxGeometry x="310" y="417" width="60" height="30" as="geometry" />
        </mxCell>
        <mxCell id="9TQTnlW5bSjwpC1UjvyU-48" value="" style="endArrow=classic;html=1;rounded=0;exitX=1;exitY=0.75;exitDx=0;exitDy=0;entryX=0;entryY=0.75;entryDx=0;entryDy=0;" edge="1" parent="1" source="7" target="15">
          <mxGeometry width="50" height="50" relative="1" as="geometry">
            <mxPoint x="490" y="390" as="sourcePoint" />
            <mxPoint x="460" y="320" as="targetPoint" />
          </mxGeometry>
        </mxCell>
        <mxCell id="9TQTnlW5bSjwpC1UjvyU-51" value="" style="endArrow=none;html=1;rounded=0;" edge="1" parent="1">
          <mxGeometry width="50" height="50" relative="1" as="geometry">
            <mxPoint x="780" y="360" as="sourcePoint" />
            <mxPoint x="780" y="200" as="targetPoint" />
          </mxGeometry>
        </mxCell>
        <mxCell id="9TQTnlW5bSjwpC1UjvyU-52" value="" style="endArrow=classic;html=1;rounded=0;entryX=0.004;entryY=0.6;entryDx=0;entryDy=0;entryPerimeter=0;" edge="1" parent="1" target="9TQTnlW5bSjwpC1UjvyU-50">
          <mxGeometry width="50" height="50" relative="1" as="geometry">
            <mxPoint x="780" y="358" as="sourcePoint" />
            <mxPoint x="680" y="350" as="targetPoint" />
          </mxGeometry>
        </mxCell>
        <mxCell id="9TQTnlW5bSjwpC1UjvyU-53" value="" style="endArrow=classic;html=1;rounded=0;entryX=0.029;entryY=0.4;entryDx=0;entryDy=0;entryPerimeter=0;" edge="1" parent="1" target="9TQTnlW5bSjwpC1UjvyU-49">
          <mxGeometry width="50" height="50" relative="1" as="geometry">
            <mxPoint x="780" y="200" as="sourcePoint" />
            <mxPoint x="680" y="350" as="targetPoint" />
          </mxGeometry>
        </mxCell>
        <mxCell id="9TQTnlW5bSjwpC1UjvyU-59" value="" style="endArrow=classic;html=1;rounded=0;exitX=1;exitY=0.5;exitDx=0;exitDy=0;" edge="1" parent="1" source="9TQTnlW5bSjwpC1UjvyU-49">
          <mxGeometry width="50" height="50" relative="1" as="geometry">
            <mxPoint x="900" y="400" as="sourcePoint" />
            <mxPoint x="1050" y="208" as="targetPoint" />
          </mxGeometry>
        </mxCell>
        <mxCell id="9TQTnlW5bSjwpC1UjvyU-60" value="" style="endArrow=none;html=1;rounded=0;" edge="1" parent="1">
          <mxGeometry width="50" height="50" relative="1" as="geometry">
            <mxPoint x="1050" y="250" as="sourcePoint" />
            <mxPoint x="1050" y="180" as="targetPoint" />
          </mxGeometry>
        </mxCell>
        <mxCell id="9TQTnlW5bSjwpC1UjvyU-61" value="" style="endArrow=classic;html=1;rounded=0;entryX=0;entryY=0.5;entryDx=0;entryDy=0;" edge="1" parent="1" target="9TQTnlW5bSjwpC1UjvyU-56">
          <mxGeometry width="50" height="50" relative="1" as="geometry">
            <mxPoint x="1050" y="251" as="sourcePoint" />
            <mxPoint x="950" y="350" as="targetPoint" />
          </mxGeometry>
        </mxCell>
        <mxCell id="9TQTnlW5bSjwpC1UjvyU-62" value="" style="endArrow=classic;html=1;rounded=0;entryX=0;entryY=0.25;entryDx=0;entryDy=0;" edge="1" parent="1" target="9TQTnlW5bSjwpC1UjvyU-55">
          <mxGeometry width="50" height="50" relative="1" as="geometry">
            <mxPoint x="1050" y="180" as="sourcePoint" />
            <mxPoint x="950" y="350" as="targetPoint" />
          </mxGeometry>
        </mxCell>
        <mxCell id="9TQTnlW5bSjwpC1UjvyU-63" value="" style="endArrow=classic;html=1;rounded=0;exitX=1;exitY=0.5;exitDx=0;exitDy=0;" edge="1" parent="1" source="9TQTnlW5bSjwpC1UjvyU-50">
          <mxGeometry width="50" height="50" relative="1" as="geometry">
            <mxPoint x="900" y="400" as="sourcePoint" />
            <mxPoint x="1050" y="350" as="targetPoint" />
          </mxGeometry>
        </mxCell>
        <mxCell id="9TQTnlW5bSjwpC1UjvyU-64" value="" style="endArrow=none;html=1;rounded=0;" edge="1" parent="1">
          <mxGeometry width="50" height="50" relative="1" as="geometry">
            <mxPoint x="1050" y="390" as="sourcePoint" />
            <mxPoint x="1050" y="310" as="targetPoint" />
          </mxGeometry>
        </mxCell>
        <mxCell id="9TQTnlW5bSjwpC1UjvyU-65" value="" style="endArrow=classic;html=1;rounded=0;entryX=0;entryY=0.25;entryDx=0;entryDy=0;" edge="1" parent="1" target="9TQTnlW5bSjwpC1UjvyU-57">
          <mxGeometry width="50" height="50" relative="1" as="geometry">
            <mxPoint x="1050" y="310" as="sourcePoint" />
            <mxPoint x="950" y="350" as="targetPoint" />
          </mxGeometry>
        </mxCell>
        <mxCell id="9TQTnlW5bSjwpC1UjvyU-66" value="" style="endArrow=classic;html=1;rounded=0;entryX=0;entryY=0.75;entryDx=0;entryDy=0;" edge="1" parent="1" target="9TQTnlW5bSjwpC1UjvyU-58">
          <mxGeometry width="50" height="50" relative="1" as="geometry">
            <mxPoint x="1050" y="390" as="sourcePoint" />
            <mxPoint x="950" y="350" as="targetPoint" />
          </mxGeometry>
        </mxCell>
        <mxCell id="9TQTnlW5bSjwpC1UjvyU-67" value="" style="endArrow=classic;html=1;rounded=0;exitX=1;exitY=0.75;exitDx=0;exitDy=0;" edge="1" parent="1" source="15">
          <mxGeometry width="50" height="50" relative="1" as="geometry">
            <mxPoint x="580" y="380" as="sourcePoint" />
            <mxPoint x="780" y="318" as="targetPoint" />
          </mxGeometry>
        </mxCell>
        <mxCell id="9TQTnlW5bSjwpC1UjvyU-70" value="" style="endArrow=none;html=1;rounded=0;exitX=0.5;exitY=1;exitDx=0;exitDy=0;" edge="1" parent="1" source="15">
          <mxGeometry width="50" height="50" relative="1" as="geometry">
            <mxPoint x="870" y="470" as="sourcePoint" />
            <mxPoint x="525" y="450" as="targetPoint" />
          </mxGeometry>
        </mxCell>
        <mxCell id="9TQTnlW5bSjwpC1UjvyU-100" value="" style="endArrow=classic;html=1;rounded=0;exitX=1;exitY=0.5;exitDx=0;exitDy=0;entryX=0;entryY=0.5;entryDx=0;entryDy=0;" edge="1" parent="1" source="9TQTnlW5bSjwpC1UjvyU-91" target="9TQTnlW5bSjwpC1UjvyU-109">
          <mxGeometry width="50" height="50" relative="1" as="geometry">
            <mxPoint x="740" y="770" as="sourcePoint" />
            <mxPoint x="1050" y="640" as="targetPoint" />
          </mxGeometry>
        </mxCell>
        <mxCell id="9TQTnlW5bSjwpC1UjvyU-106" value="" style="endArrow=classic;html=1;rounded=0;exitX=1;exitY=0.5;exitDx=0;exitDy=0;entryX=0;entryY=0.5;entryDx=0;entryDy=0;" edge="1" parent="1" source="9TQTnlW5bSjwpC1UjvyU-98" target="9TQTnlW5bSjwpC1UjvyU-107">
          <mxGeometry width="50" height="50" relative="1" as="geometry">
            <mxPoint x="740" y="870" as="sourcePoint" />
            <mxPoint x="1260" y="1084" as="targetPoint" />
          </mxGeometry>
        </mxCell>
        <mxCell id="9TQTnlW5bSjwpC1UjvyU-111" value="" style="endArrow=none;html=1;rounded=0;entryX=1;entryY=1;entryDx=0;entryDy=0;" edge="1" parent="1" target="9TQTnlW5bSjwpC1UjvyU-86">
          <mxGeometry width="50" height="50" relative="1" as="geometry">
            <mxPoint x="550" y="560" as="sourcePoint" />
            <mxPoint x="770" y="730" as="targetPoint" />
          </mxGeometry>
        </mxCell>
        <mxCell id="9TQTnlW5bSjwpC1UjvyU-112" value="" style="endArrow=classic;html=1;rounded=0;entryX=0.5;entryY=0;entryDx=0;entryDy=0;" edge="1" parent="1" target="9TQTnlW5bSjwpC1UjvyU-91">
          <mxGeometry width="50" height="50" relative="1" as="geometry">
            <mxPoint x="550" y="560" as="sourcePoint" />
            <mxPoint x="770" y="730" as="targetPoint" />
          </mxGeometry>
        </mxCell>
        <mxCell id="9TQTnlW5bSjwpC1UjvyU-117" value="" style="endArrow=none;html=1;rounded=0;entryX=0.5;entryY=1;entryDx=0;entryDy=0;" edge="1" parent="1" target="9TQTnlW5bSjwpC1UjvyU-109">
          <mxGeometry width="50" height="50" relative="1" as="geometry">
            <mxPoint x="1140" y="780" as="sourcePoint" />
            <mxPoint x="770" y="780" as="targetPoint" />
          </mxGeometry>
        </mxCell>
        <mxCell id="9TQTnlW5bSjwpC1UjvyU-118" value="" style="endArrow=none;html=1;rounded=0;" edge="1" parent="1">
          <mxGeometry width="50" height="50" relative="1" as="geometry">
            <mxPoint x="1140" y="780" as="sourcePoint" />
            <mxPoint x="1350" y="780" as="targetPoint" />
          </mxGeometry>
        </mxCell>
        <mxCell id="9TQTnlW5bSjwpC1UjvyU-119" value="" style="endArrow=classic;html=1;rounded=0;" edge="1" parent="1">
          <mxGeometry width="50" height="50" relative="1" as="geometry">
            <mxPoint x="1350" y="780" as="sourcePoint" />
            <mxPoint x="1350" y="1060" as="targetPoint" />
          </mxGeometry>
        </mxCell>
        <mxCell id="9TQTnlW5bSjwpC1UjvyU-121" value="" style="endArrow=classic;html=1;rounded=0;exitX=1;exitY=0.5;exitDx=0;exitDy=0;" edge="1" parent="1" source="9TQTnlW5bSjwpC1UjvyU-94">
          <mxGeometry width="50" height="50" relative="1" as="geometry">
            <mxPoint x="720" y="830" as="sourcePoint" />
            <mxPoint x="1040" y="870" as="targetPoint" />
          </mxGeometry>
        </mxCell>
        <mxCell id="9TQTnlW5bSjwpC1UjvyU-127" value="" style="endArrow=none;html=1;rounded=0;entryX=0.5;entryY=1;entryDx=0;entryDy=0;" edge="1" parent="1" target="9TQTnlW5bSjwpC1UjvyU-123">
          <mxGeometry width="50" height="50" relative="1" as="geometry">
            <mxPoint x="1115" y="1090" as="sourcePoint" />
            <mxPoint x="770" y="730" as="targetPoint" />
          </mxGeometry>
        </mxCell>
        <mxCell id="9TQTnlW5bSjwpC1UjvyU-134" value="" style="endArrow=none;html=1;rounded=0;exitX=1;exitY=0.5;exitDx=0;exitDy=0;" edge="1" parent="1" source="9TQTnlW5bSjwpC1UjvyU-123">
          <mxGeometry width="50" height="50" relative="1" as="geometry">
            <mxPoint x="820" y="780" as="sourcePoint" />
            <mxPoint x="1290" y="878" as="targetPoint" />
          </mxGeometry>
        </mxCell>
        <mxCell id="9TQTnlW5bSjwpC1UjvyU-135" value="" style="endArrow=classic;html=1;rounded=0;" edge="1" parent="1">
          <mxGeometry width="50" height="50" relative="1" as="geometry">
            <mxPoint x="1290" y="880" as="sourcePoint" />
            <mxPoint x="1290" y="680" as="targetPoint" />
          </mxGeometry>
        </mxCell>
        <mxCell id="9TQTnlW5bSjwpC1UjvyU-136" value="" style="endArrow=none;html=1;rounded=0;" edge="1" parent="1">
          <mxGeometry width="50" height="50" relative="1" as="geometry">
            <mxPoint x="1350" y="1240" as="sourcePoint" />
            <mxPoint x="1350" y="1130" as="targetPoint" />
          </mxGeometry>
        </mxCell>
        <mxCell id="9TQTnlW5bSjwpC1UjvyU-137" value="" style="endArrow=none;html=1;rounded=0;" edge="1" parent="1">
          <mxGeometry width="50" height="50" relative="1" as="geometry">
            <mxPoint x="360" y="1240" as="sourcePoint" />
            <mxPoint x="1350" y="1240" as="targetPoint" />
          </mxGeometry>
        </mxCell>
      </root>
    </mxGraphModel>
  </diagram>
</mxfile>
